<svg xmlns="http://www.w3.org/2000/svg" viewBox="0 0 172.63 61.04"><defs><style>.cls-1{fill:none;}.cls-2{fill:#21684f;}</style></defs><g id="레이어_2" data-name="레이어 2"><g id="레이어_2-2" data-name="레이어 2"><path d="M24.85,55.16v-39H0v-13H51.92v13H27V55.16Z"/><path d="M145.56,55.16v-39H120.71v-13h51.92v13H147.71V55.16Z"/><path class="cls-1" d="M110.29,36.19c0-4.54-6.7-5.95-9.3-5.95H95.41l-3.49,4.81,6.18,7.09h1.1C106.05,42.14,110.29,39.76,110.29,36.19Z"/><path class="cls-1" d="M98.61,28.08c3.64,0,9.22-1.78,9.22-6.1,0-2.08-1.35-3.48-3.23-4.39L97,28.08Z"/><polygon class="cls-1" points="87.89 16.11 75.45 16.11 82.24 23.89 87.89 16.11"/><polygon class="cls-1" points="72 16.11 65.8 16.11 65.8 28.08 79.2 28.08 80.67 26.07 72 16.11"/><polygon class="cls-1" points="65.8 30.24 65.8 42.14 68.93 42.14 77.63 30.24 65.8 30.24"/><polygon class="cls-1" points="86.7 42.14 94.69 42.14 90.35 37.15 86.7 42.14"/><path d="M109.35,11.05l8-11H99.59L97.12,3.4C104.92,4.22,108.08,6.7,109.35,11.05Z"/><polygon points="95.42 30.24 77.63 30.24 68.93 42.14 86.7 42.14 90.35 37.15 94.69 42.14 98.1 42.14 91.92 35.05 95.42 30.24"/><path d="M104.71,53.68,111.1,61h3.49l-7.37-8.45A13.92,13.92,0,0,1,104.71,53.68Z"/><path d="M104.6,17.59a19,19,0,0,0-7.78-1.48H87.89l-5.65,7.78-6.79-7.78H72l8.67,10-1.47,2H97Z"/><polygon points="63.65 49.37 55.12 61.04 72.91 61.04 77.2 55.16 63.65 55.16 63.65 49.37"/><polygon points="64.09 3.09 61.4 0 58 0 63.65 6.49 63.65 3.09 64.09 3.09"/><path class="cls-2" d="M87.89,16.11,97.12,3.4a63.91,63.91,0,0,0-6.77-.31H64.09l11.36,13Z"/><polygon class="cls-2" points="65.8 42.14 65.8 30.24 77.63 30.24 79.2 28.08 65.8 28.08 65.8 16.11 72 16.11 63.65 6.49 63.65 49.37 68.93 42.14 65.8 42.14"/><path class="cls-2" d="M86.7,42.14l-9.5,13H92.73c5.27,0,9.14-.52,12-1.48l-10-11.54Z"/><path class="cls-2" d="M107.83,22c0,4.32-5.58,6.1-9.22,6.1H97l-1.57,2.16H101c2.6,0,9.3,1.41,9.3,5.95,0,3.57-4.24,6-11.09,6H98.1l9.12,10.45c5.36-3,5.37-8.53,5.37-15.51,0-4.61-3.79-7.36-7.29-8.4a8.9,8.9,0,0,0,4.91-7.07c0-4.3,0-7.8-.86-10.56l-4.75,6.54C106.48,18.5,107.83,19.9,107.83,22Z"/><polygon class="cls-2" points="96.98 28.08 79.2 28.08 77.63 30.24 95.42 30.24 96.98 28.08"/><path d="M96.82,16.11a19,19,0,0,1,7.78,1.48l4.75-6.54c-1.27-4.35-4.43-6.83-12.23-7.65L87.89,16.11Z"/><path d="M98.1,42.14H94.69l10,11.54a13.92,13.92,0,0,0,2.51-1.09Z"/><polygon class="cls-2" points="68.93 42.14 63.65 49.37 63.65 55.16 77.2 55.16 86.7 42.14 68.93 42.14"/><polygon class="cls-2" points="75.45 16.11 64.09 3.09 63.65 3.09 63.65 6.49 72 16.11 75.45 16.11"/></g></g></svg>